HIERARCHY
ROOT Hips
{
	OFFSET 0.000000 0.000000 0.000000 
	CHANNELS 6 Xposition Yposition Zposition Zrotation Yrotation Xrotation
	JOINT LeftUpLeg
	{
		OFFSET 1.363060 -1.794630 0.839290 
		CHANNELS 3 Zrotation Yrotation Xrotation
		JOINT LeftLeg
		{
			OFFSET 2.448110 -6.726130 0.000000 
			CHANNELS 3 Zrotation Yrotation Xrotation
			JOINT LeftFoot
			{
				OFFSET 2.562200 -7.039590 0.000000 
				CHANNELS 3 Zrotation Yrotation Xrotation
				JOINT LeftToeBase
				{
					OFFSET 0.157640 -0.433110 2.322550 
					CHANNELS 3 Zrotation Yrotation Xrotation
					End Site
					{
						OFFSET 0.000000 0.000000 0.000000 
					}
				}
			}
		}
	}
	JOINT RightUpLeg
	{
		OFFSET -1.305520 -1.794630 0.839290 
		CHANNELS 3 Zrotation Yrotation Xrotation
		JOINT RightLeg
		{
			OFFSET -2.542530 -6.985550 0.000000 
			CHANNELS 3 Zrotation Yrotation Xrotation
			JOINT RightFoot
			{
				OFFSET -2.568260 -7.056230 0.000000 
				CHANNELS 3 Zrotation Yrotation Xrotation
				JOINT RightToeBase
				{
					OFFSET -0.164730 -0.452590 2.363150 
					CHANNELS 3 Zrotation Yrotation Xrotation
					End Site
					{
						OFFSET 0.000000 0.000000 0.000000 
					}
				}
			}
		}
	}
	JOINT Spine
	{
		OFFSET 0.028270 2.035590 -0.193380 
		CHANNELS 3 Zrotation Yrotation Xrotation
		JOINT Spine1
		{
			OFFSET 0.056720 2.048850 -0.042750 
			CHANNELS 3 Zrotation Yrotation Xrotation
			JOINT Neck1
			{
				OFFSET -0.054170 1.746240 0.172020 
				CHANNELS 3 Zrotation Yrotation Xrotation
				JOINT Head
				{
					OFFSET 0.104070 1.761360 -0.123970 
					CHANNELS 3 Zrotation Yrotation Xrotation
					End Site
					{
						OFFSET 0.000000 0.000000 0.000000 
					}
				}
			}
			JOINT LeftArm
			{
				OFFSET 3.362410 1.200890 -0.311210 
				CHANNELS 3 Zrotation Yrotation Xrotation
				JOINT LeftForeArm
				{
					OFFSET 4.983000 -0.000000 -0.000000 
					CHANNELS 3 Zrotation Yrotation Xrotation
					JOINT LeftHand
					{
						OFFSET 3.483560 -0.000000 -0.000000 
						CHANNELS 3 Zrotation Yrotation Xrotation
						JOINT LeftHandIndex1
						{
							OFFSET 0.715260 -0.000000 -0.000000 
							CHANNELS 3 Zrotation Yrotation Xrotation
							End Site
							{
								OFFSET 0.000000 0.000000 0.000000 
							}
						}
					}
				}
			}
			JOINT RightArm
			{
				OFFSET -3.136600 1.374050 -0.404650 
				CHANNELS 3 Zrotation Yrotation Xrotation
				JOINT RightForeArm
				{
					OFFSET -5.241900 -0.000000 -0.000000 
					CHANNELS 3 Zrotation Yrotation Xrotation
					JOINT RightHand
					{
						OFFSET -3.444170 -0.000000 -0.000000 
						CHANNELS 3 Zrotation Yrotation Xrotation
						JOINT RightHandIndex1
						{
							OFFSET -0.622530 -0.000000 -0.000000 
							CHANNELS 3 Zrotation Yrotation Xrotation
							End Site
							{
								OFFSET 0.000000 0.000000 0.000000 
							}
						}
					}
				}
			}
		}
	}
}
MOTION
Frames: 13
Frame Time: 0.041667
7.213114 17.279489 -4.625609 -49.427419 -85.854496 45.136699 -21.017921 5.207697 -0.452657 1.109568 8.392211 23.104217 0.406822 1.754408 -13.057858 0.003900 -0.405800 -1.114900 32.346416 5.394754 -4.726284 -2.087099 -11.819269 32.627060 -0.027728 -4.853891 -15.877658 -0.069400 -1.699700 4.676400 1.357609 -0.899297 -0.948058 -2.061848 -0.414249 4.235400 6.562746 1.649050 10.792995 -0.258000 1.309200 3.299000 -81.166879 -2.328858 16.988555 6.283613 -17.856211 -1.987086 -1.023727 -1.275901 -18.698576 -7.125000 0.000000 0.000000 79.025295 1.199311 15.612081 -8.325328 20.411120 -2.589131 1.355015 0.189519 3.140118 7.125000 0.000000 0.000000 
7.212267 17.279701 -4.627091 -49.733232 -85.850245 45.451420 -20.990339 5.244222 -0.476307 1.111222 8.393247 23.109377 0.400768 1.783965 -13.046293 0.005400 -0.475500 -1.306600 32.365449 5.382507 -4.739136 -2.085143 -11.818087 32.619244 -0.021939 -4.868913 -15.850318 -0.069000 -1.694100 4.661000 1.358390 -0.898901 -0.947648 -2.071300 -0.413714 4.236400 6.546494 1.663647 10.788574 -0.276100 1.316600 3.290800 -81.153865 -2.348460 16.979985 6.284728 -17.856359 -1.987398 -1.022056 -1.274648 -18.715491 -7.125000 0.000000 0.000000 79.031635 1.195039 15.560570 -8.314523 20.396664 -2.585753 1.353339 0.189551 3.205901 7.125000 0.000000 0.000000 
7.214807 17.282664 -4.631113 -49.070523 -85.796501 44.861500 -20.970978 5.159925 -0.560575 1.109668 8.395972 23.110191 0.401980 1.766644 -13.016810 0.005200 -0.464800 -1.277100 32.384069 5.401757 -4.821997 -2.080306 -11.819730 32.606649 -0.018154 -4.896479 -15.882062 -0.069300 -1.698400 4.672800 1.358388 -0.921686 -0.961954 -2.079986 -0.425464 4.182777 6.543712 1.665403 10.776765 -0.282800 1.317000 3.279300 -81.129081 -2.338241 16.980735 6.287609 -17.859060 -1.987975 -1.019896 -1.270790 -18.691282 -7.125000 0.000000 0.000000 79.069708 1.174121 15.494225 -8.308160 20.384671 -2.584177 1.354714 0.190075 3.214984 7.125000 0.000000 0.000000 
7.213325 17.281288 -4.632171 -49.449056 -85.818103 45.215170 -20.967261 5.182964 -0.529828 1.111800 8.397410 23.118300 0.400485 1.787399 -13.048865 0.005100 -0.463400 -1.273300 32.393182 5.392089 -4.789017 -2.079646 -11.816194 32.600566 -0.019108 -4.888384 -15.871741 -0.069000 -1.694600 4.662300 1.358539 -0.911430 -0.956283 -2.079567 -0.420675 4.196731 6.534522 1.676473 10.768810 -0.290900 1.322100 3.273100 -81.151815 -2.441488 16.824124 6.206555 -17.734851 -1.958033 -1.036182 -1.233683 -18.660414 -7.125000 0.000000 0.000000 79.058516 1.191301 15.430811 -8.288987 20.357854 -2.577928 1.353138 0.188334 3.262831 7.125000 0.000000 0.000000 
7.213431 17.281606 -4.634288 -49.557435 -85.808466 45.336288 -20.949308 5.169552 -0.546040 1.113232 8.400290 23.127068 0.399312 1.797071 -13.057443 0.005200 -0.463700 -1.274200 32.413723 5.396141 -4.798070 -2.076359 -11.813546 32.588050 -0.017001 -4.897537 -15.872252 -0.069200 -1.697200 4.669500 1.358810 -0.912237 -0.957391 -2.085723 -0.421152 4.188872 6.527051 1.684668 10.758245 -0.300100 1.325700 3.263100 -81.149131 -2.481785 16.800756 6.170807 -17.680738 -1.942804 -1.047597 -1.203594 -18.733431 -7.125000 0.000000 0.000000 79.068794 1.193785 15.366682 -8.275762 20.338448 -2.573900 1.352971 0.187028 3.302057 7.125000 0.000000 0.000000 
7.213220 17.281818 -4.636299 -49.761295 -85.801110 45.547775 -20.929828 5.157993 -0.555656 1.115193 8.403446 23.137648 0.397646 1.812624 -13.072251 0.005200 -0.464000 -1.275000 32.438648 5.403810 -4.801019 -2.073789 -11.811872 32.578609 -0.014952 -4.907275 -15.875009 -0.069200 -1.697700 4.671000 1.358921 -0.909841 -0.957318 -2.092828 -0.419805 4.184388 6.521247 1.691715 10.746672 -0.308000 1.328700 3.252100 -81.143665 -2.519040 16.801997 6.138808 -17.632921 -1.928628 -1.060025 -1.171681 -18.842312 -7.125000 0.000000 0.000000 79.079470 1.197504 15.304712 -8.261818 20.318486 -2.569635 1.353251 0.185342 3.335518 7.125000 0.000000 0.000000 
7.212690 17.281712 -4.638204 -50.093868 -85.799552 45.880016 -20.910381 5.153280 -0.555644 1.117777 8.407084 23.150809 0.395455 1.834142 -13.096259 0.005200 -0.463400 -1.273400 32.465477 5.412542 -4.791432 -2.070758 -11.808761 32.566371 -0.012918 -4.915205 -15.873924 -0.069300 -1.698700 4.673600 1.358856 -0.903136 -0.955474 -2.099180 -0.416146 4.185671 6.518274 1.698679 10.735298 -0.313400 1.331600 3.240300 -81.135954 -2.553770 16.820263 6.117112 -17.600143 -1.918217 -1.071072 -1.144212 -18.963539 -7.125000 0.000000 0.000000 79.088603 1.202099 15.244923 -8.246855 20.297741 -2.565165 1.353760 0.183915 3.367385 7.125000 0.000000 0.000000 
7.212055 17.281712 -4.640003 -50.425463 -85.799020 46.210738 -20.892820 5.148984 -0.554187 1.120206 8.410344 23.162751 0.392426 1.861147 -13.121752 0.005200 -0.465600 -1.279400 32.490877 5.420387 -4.780933 -2.067888 -11.805557 32.554562 -0.011089 -4.922686 -15.872244 -0.069300 -1.698200 4.672300 1.358642 -0.895806 -0.953279 -2.104604 -0.412153 4.188746 6.517662 1.704258 10.724239 -0.316700 1.333800 3.228400 -81.124433 -2.583387 16.860166 6.111859 -17.591316 -1.914047 -1.078701 -1.126159 -19.082461 -7.125000 0.000000 0.000000 79.098546 1.206090 15.185277 -8.232234 20.277767 -2.560841 1.354592 0.182471 3.393106 7.125000 0.000000 0.000000 
7.211209 17.281500 -4.641591 -50.742745 -85.801615 46.522802 -20.880098 5.148539 -0.546161 1.122328 8.412728 23.172614 0.389151 1.890529 -13.150072 0.005300 -0.470400 -1.292600 32.510773 5.421294 -4.767387 -2.065526 -11.802355 32.544126 -0.010405 -4.923522 -15.867869 -0.069100 -1.695500 4.664900 1.358061 -0.887030 -0.950355 -2.109599 -0.407504 4.194462 6.519603 1.708338 10.715200 -0.317300 1.335300 3.217600 -81.112057 -2.617249 16.892985 6.113973 -17.591944 -1.913255 -1.083023 -1.116217 -19.166919 -7.125000 0.000000 0.000000 79.107337 1.208563 15.123599 -8.217623 20.258105 -2.556597 1.355470 0.181234 3.415447 7.125000 0.000000 0.000000 
7.210362 17.281394 -4.643178 -50.951939 -85.805867 46.728926 -20.873860 5.147495 -0.539029 1.123881 8.414475 23.179069 0.385804 1.919405 -13.174917 0.005400 -0.475800 -1.307300 32.522594 5.418626 -4.756850 -2.063586 -11.799300 32.534690 -0.010778 -4.920361 -15.863073 -0.069200 -1.696800 4.668500 1.357246 -0.880126 -0.947597 -2.112375 -0.403854 4.201215 6.523490 1.711751 10.707989 -0.315700 1.336600 3.208200 -81.098965 -2.658632 16.907539 6.123268 -17.601662 -1.916026 -1.083535 -1.117078 -19.197385 -7.125000 0.000000 0.000000 79.116241 1.210312 15.061718 -8.202790 20.238324 -2.552373 1.356531 0.179765 3.429469 7.125000 0.000000 0.000000 
7.209621 17.281288 -4.644554 -51.069221 -85.805349 46.846744 -20.867973 5.144389 -0.535104 1.124771 8.415351 23.182943 0.383044 1.942204 -13.194235 0.005600 -0.481300 -1.322500 32.530004 5.405515 -4.754012 -2.061848 -11.796653 32.526530 -0.012824 -4.908589 -15.855192 -0.069400 -1.699200 4.675200 1.356530 -0.875605 -0.945124 -2.116307 -0.401360 4.209381 6.527579 1.713809 10.702543 -0.313400 1.337300 3.200100 -81.087987 -2.704822 16.915128 6.130367 -17.607619 -1.918060 -1.083963 -1.117176 -19.214217 -7.125000 0.000000 0.000000 79.125297 1.210514 14.996494 -8.188434 20.219525 -2.548447 1.357611 0.177855 3.438189 7.125000 0.000000 0.000000 
7.208986 17.281394 -4.645824 -51.076232 -85.802877 46.859620 -20.864910 5.138766 -0.537262 1.125206 8.415962 23.184705 0.380940 1.958811 -13.206916 0.005700 -0.487500 -1.339400 32.531440 5.388008 -4.759757 -2.060372 -11.794455 32.518979 -0.014686 -4.896873 -15.845810 -0.069500 -1.700500 4.678600 1.355505 -0.873118 -0.943742 -2.121671 -0.399875 4.214832 6.531360 1.716318 10.699417 -0.311700 1.338300 3.193500 -81.074003 -2.740400 16.944506 6.145158 -17.625237 -1.922438 -1.083668 -1.117419 -19.244794 -7.125000 0.000000 0.000000 79.136282 1.205918 14.934375 -8.174459 20.201626 -2.544742 1.358769 0.175776 3.437588 7.125000 0.000000 0.000000 
7.208351 17.281394 -4.646988 -51.101692 -85.800553 46.890017 -20.860996 5.133750 -0.537957 1.125656 8.416513 23.186363 0.379805 1.970615 -13.219815 0.005700 -0.489200 -1.344200 32.532724 5.370366 -4.764975 -2.059018 -11.792342 32.512114 -0.017502 -4.880696 -15.834672 -0.069800 -1.703900 4.688000 1.354418 -0.870539 -0.942635 -2.128483 -0.398357 4.219047 6.534817 1.720123 10.698743 -0.309800 1.340200 3.188800 -81.060061 -2.766613 16.989335 6.167059 -17.653349 -1.928960 -1.083191 -1.118308 -19.288011 -7.125000 0.000000 0.000000 79.148215 1.197557 14.872503 -8.161074 20.184771 -2.541130 1.359861 0.173489 3.438692 7.125000 0.000000 0.000000 
